<?xml version="1.0" encoding="UTF-8"?>
<svg id="Layer_2" data-name="Layer 2" xmlns="http://www.w3.org/2000/svg" viewBox="0 0 587.73 95.92">
  <defs>
    <style>
      .cls-1 {
        fill: #1369f5;
      }
    </style>
  </defs>
  <g id="Layer_1-2" data-name="Layer 1">
    <g>
      <g>
        <path d="M246.6,49.7c-1.72-5.38-7.96-9.25-15.91-9.25-10.75,0-17.42,5.95-17.42,15.41s6.24,15.41,17.56,15.41c8.53,0,13.26-3.73,15.62-8.53l10.03,4.66c-3.87,9.1-12.61,14.26-26.52,14.26-16.2,0-28.96-9.39-28.96-25.8s13.62-25.73,29.67-25.73c12.54,0,22.43,6.38,26.09,14.33l-10.18,5.23Z"/>
        <path d="M310.02,80.09h-11.75v-16.34c0-11.61-4.44-14.48-11.25-14.48-4.87,0-8.6,1.72-12.9,5.38v25.44h-11.68V30.14h11.4v15.62c3.66-3.23,8.46-5.59,14.98-5.59,10.25,0,21.21,3.8,21.21,23.29v16.63Z"/>
        <path d="M345.48,50.92c-6.31.07-15.91,1.15-15.91,10.03v19.14h-11.68v-39.06h10.96v6.88c2.72-6.31,8.24-7.74,16.63-7.74v10.75Z"/>
        <path d="M373.52,80.95c-14.62,0-26.09-6.81-26.09-20.43s11.47-20.35,26.09-20.35,26.02,6.81,26.02,20.35-11.47,20.43-26.02,20.43ZM373.45,48.91c-8.1,0-15.12,3.51-15.12,11.61s7.02,11.68,15.12,11.68,15.05-3.51,15.05-11.68-7.02-11.61-15.05-11.61Z"/>
        <path d="M453.49,80.09h-11.75v-16.34c0-11.61-4.44-14.48-11.25-14.48-4.87,0-8.6,1.72-12.9,5.38v25.44h-11.68v-39.06h11.04v4.73c3.73-3.23,8.82-5.59,15.34-5.59,10.25,0,21.21,3.8,21.21,23.29v16.63Z"/>
        <path d="M485.18,80.95c-14.62,0-26.09-6.81-26.09-20.43s11.47-20.35,26.09-20.35,26.02,6.81,26.02,20.35-11.47,20.43-26.02,20.43ZM485.11,48.91c-8.1,0-15.12,3.51-15.12,11.61s7.02,11.68,15.12,11.68,15.05-3.51,15.05-11.68-7.02-11.61-15.05-11.61Z"/>
        <path d="M572.07,80.09h-13.62l-4.51-9.89h-25.95l-4.59,9.89h-12.54l22.86-48.38h14.91l23.44,48.38ZM532.43,60.6h17.13l-8.46-18.63-8.67,18.63Z"/>
        <path d="M587.73,80.09h-11.75V31.71h11.75v48.38Z"/>
      </g>
      <path class="cls-1" d="M92.64,1.74c.2.75-.18.54-.41.73-5.46,4.71-7.09,7.24-9.97,13.88-5,11.53-7.6,23.95-11.17,35.96-.16.5-.09.87.1,1.35.15.37,2.77,3.9,3.25,4.5,6.52,8.29,14.27,10.65,21.92,1.97,1.57-1.78,4.37-5.37,3.88-7.76-4.27-13.92-7.63-28.19-14.23-41.25l.09-.58c.56-1.58,5.81-7.71,7.36-7.85.82-.08,2.4,2.01,3.03,2.76,7.21,8.56,10.27,20.28,14.37,30.48,1.24-2.29,2.65-4.66,4.22-6.75,12.12-16.06,21.08-9.85,31.74,3.05,1.26,1.53,2.34,3.25,3.54,4.83,7.13-1.43,11.51,4.04,14.79,9.42,1.86,3.05,4.24,7.57,5.6,10.85.99,2.37,2.3,4.6-1.5,5.06-7.19.87-12.93-8.41-17.27-12.91-3.38,12.49-5.19,27.99-12,39.15-.69,1.13-3.03,4.75-4.47,4.28-1.52-.49-6.61-6.02-6.41-7.38.09-.59,2.03-3.33,2.49-4.31,5.08-10.83,6.01-24.19,11.28-35.18.47-.97,3-4.69,2.84-5.27-4.46-6.23-11.85-13.72-20.28-11.85-3.55.79-7.27,4.15-9.61,6.85-.82.95-3.55,4.42-3.52,5.45,3.44,10.58,5.81,21.54,9.65,31.99,2.85,7.74,6.3,16.21,13.23,21.12-9.78,5.06-17.92-3.26-22.72-10.99-4.75-7.65-7.63-16.66-10.52-25.14-3.4,4.6-7.02,12.64-12.91,14.35-9.57,2.77-15.18-9.08-19.19-15.64-3.1,8.42-5.67,17.21-10.11,25.06-3.91,6.92-11.58,16.28-20.64,13.43-.54-.17-2.5-.85-2.32-1.55.05-.21,2.72-2.03,3.39-2.74,3.6-3.82,6.12-10.01,8.05-14.86,4.59-11.5,7.26-23.64,11.08-35.4.13-.46-.12-.78-.31-1.16-.64-1.28-4.27-5.43-5.44-6.51-10.75-9.91-20.81-1.03-27.69,8.13,8.87,13.51,8.02,31,16.67,44.53-1.29,1.99-4.44,6.76-6.73,7.4-1.14.32-3.59-3.59-4.21-4.55-7.13-11.1-8.27-26.4-11.93-38.88-2.03,2.02-3.5,4.55-5.47,6.62-2.89,3.03-8.14,7.41-12.59,5.79-1.58-.58-1.95-1.08-1.46-2.75,1.3-4.49,8.48-17.35,12.14-20.13,3.1-2.35,5.62-2.24,9.33-2.29,5.72-7.89,14.44-20.97,25.93-16.57,3.21,1.23,7.3,5.61,9.37,8.37l3.9,5.78c.56-.29,2.96-8.41,3.47-9.76,4.43-11.66,12.49-30.76,28.31-23.15ZM17.14,42.07c-.71-.78-4.15,4.59-4.45,5.06-1.07,1.69-2.14,3.75-2.96,5.58,1.57-1.63,3.15-3.53,4.45-5.38.51-.72,3.42-4.76,2.96-5.26ZM162.01,52.39c-1.08-2.49-2.65-5.31-4.25-7.52-.75-1.04-1.74-2.86-3.17-2.8-.58.54,6.49,9.54,7.42,10.32Z"/>
    </g>
  </g>
</svg>