<svg width="588" height="96" viewBox="0 0 588 96" fill="none" xmlns="http://www.w3.org/2000/svg">
<g clip-path="url(#clip0_2926_138)">
<path d="M246.6 49.6999C244.88 44.3199 238.64 40.4499 230.69 40.4499C219.94 40.4499 213.27 46.3999 213.27 55.8599C213.27 65.3199 219.51 71.2699 230.83 71.2699C239.36 71.2699 244.09 67.5399 246.45 62.7399L256.48 67.3999C252.61 76.4999 243.87 81.6599 229.96 81.6599C213.76 81.6599 201 72.2699 201 55.8599C201 39.4499 214.62 30.1299 230.67 30.1299C243.21 30.1299 253.1 36.5099 256.76 44.4599L246.58 49.6899L246.6 49.6999Z" fill="white"/>
<path d="M310.019 80.0896H298.269V63.7496C298.269 52.1396 293.829 49.2696 287.019 49.2696C282.149 49.2696 278.419 50.9897 274.119 54.6497V80.0896H262.439V30.1396H273.839V45.7596C277.499 42.5296 282.299 40.1696 288.819 40.1696C299.069 40.1696 310.029 43.9696 310.029 63.4596V80.0896H310.019Z" fill="white"/>
<path d="M345.481 50.9199C339.171 50.9899 329.571 52.0699 329.571 60.9499V80.0899H317.891V41.0299H328.851V47.9099C331.571 41.5999 337.091 40.1699 345.481 40.1699V50.9199Z" fill="white"/>
<path d="M373.52 80.9499C358.9 80.9499 347.43 74.1399 347.43 60.5199C347.43 46.8999 358.9 40.1699 373.52 40.1699C388.14 40.1699 399.54 46.9799 399.54 60.5199C399.54 74.0599 388.07 80.9499 373.52 80.9499ZM373.45 48.9099C365.35 48.9099 358.33 52.4199 358.33 60.5199C358.33 68.6199 365.35 72.1999 373.45 72.1999C381.55 72.1999 388.5 68.6899 388.5 60.5199C388.5 52.3499 381.48 48.9099 373.45 48.9099Z" fill="white"/>
<path d="M453.49 80.0899H441.74V63.7499C441.74 52.1399 437.3 49.2699 430.49 49.2699C425.62 49.2699 421.89 50.9899 417.59 54.6499V80.0899H405.91V41.0299H416.95V45.7599C420.68 42.5299 425.77 40.1699 432.29 40.1699C442.54 40.1699 453.5 43.9699 453.5 63.4599V80.0899H453.49Z" fill="white"/>
<path d="M485.18 80.9499C470.56 80.9499 459.09 74.1399 459.09 60.5199C459.09 46.8999 470.56 40.1699 485.18 40.1699C499.8 40.1699 511.2 46.9799 511.2 60.5199C511.2 74.0599 499.73 80.9499 485.18 80.9499ZM485.11 48.9099C477.01 48.9099 469.99 52.4199 469.99 60.5199C469.99 68.6199 477.01 72.1999 485.11 72.1999C493.21 72.1999 500.16 68.6899 500.16 60.5199C500.16 52.3499 493.14 48.9099 485.11 48.9099Z" fill="white"/>
<path d="M572.069 80.09H558.449L553.939 70.2H527.989L523.399 80.09H510.859L533.719 31.71H548.629L572.069 80.09ZM532.429 60.6H549.559L541.099 41.97L532.429 60.6Z" fill="white"/>
<path d="M587.73 80.09H575.98V31.71H587.73V80.09Z" fill="white"/>
<path d="M92.6397 1.74001C92.8397 2.49001 92.4597 2.28001 92.2297 2.47001C86.7697 7.18001 85.1397 9.71001 82.2597 16.35C77.2597 27.88 74.6597 40.3 71.0897 52.31C70.9297 52.81 70.9997 53.18 71.1897 53.66C71.3397 54.03 73.9597 57.56 74.4397 58.16C80.9597 66.45 88.7097 68.81 96.3597 60.13C97.9297 58.35 100.73 54.76 100.24 52.37C95.9697 38.45 92.6097 24.18 86.0097 11.12L86.0997 10.54C86.6597 8.96001 91.9097 2.83001 93.4597 2.69001C94.2797 2.61001 95.8597 4.70001 96.4897 5.45001C103.7 14.01 106.76 25.73 110.86 35.93C112.1 33.64 113.51 31.27 115.08 29.18C127.2 13.12 136.16 19.33 146.82 32.23C148.08 33.76 149.16 35.48 150.36 37.06C157.49 35.63 161.87 41.1 165.15 46.48C167.01 49.53 169.39 54.05 170.75 57.33C171.74 59.7 173.05 61.93 169.25 62.39C162.06 63.26 156.32 53.98 151.98 49.48C148.6 61.97 146.79 77.47 139.98 88.63C139.29 89.76 136.95 93.38 135.51 92.91C133.99 92.42 128.9 86.89 129.1 85.53C129.19 84.94 131.13 82.2 131.59 81.22C136.67 70.39 137.6 57.03 142.87 46.04C143.34 45.07 145.87 41.35 145.71 40.77C141.25 34.54 133.86 27.05 125.43 28.92C121.88 29.71 118.16 33.07 115.82 35.77C115 36.72 112.27 40.19 112.3 41.22C115.74 51.8 118.11 62.76 121.95 73.21C124.8 80.95 128.25 89.42 135.18 94.33C125.4 99.39 117.26 91.07 112.46 83.34C107.71 75.69 104.83 66.68 101.94 58.2C98.5397 62.8 94.9197 70.84 89.0297 72.55C79.4597 75.32 73.8497 63.47 69.8397 56.91C66.7397 65.33 64.1697 74.12 59.7297 81.97C55.8197 88.89 48.1497 98.25 39.0897 95.4C38.5497 95.23 36.5897 94.55 36.7697 93.85C36.8197 93.64 39.4897 91.82 40.1597 91.11C43.7597 87.29 46.2797 81.1 48.2097 76.25C52.7997 64.75 55.4697 52.61 59.2897 40.85C59.4197 40.39 59.1697 40.07 58.9797 39.69C58.3397 38.41 54.7097 34.26 53.5397 33.18C42.7897 23.27 32.7297 32.15 25.8497 41.31C34.7197 54.82 33.8697 72.31 42.5197 85.84C41.2297 87.83 38.0797 92.6 35.7897 93.24C34.6497 93.56 32.1997 89.65 31.5797 88.69C24.4497 77.59 23.3097 62.29 19.6497 49.81C17.6197 51.83 16.1497 54.36 14.1797 56.43C11.2897 59.46 6.03966 63.84 1.58966 62.22C0.00966334 61.64 -0.360337 61.14 0.129663 59.47C1.42966 54.98 8.60966 42.12 12.2697 39.34C15.3697 36.99 17.8897 37.1 21.5997 37.05C27.3197 29.16 36.0397 16.08 47.5297 20.48C50.7397 21.71 54.8297 26.09 56.8997 28.85L60.7997 34.63C61.3597 34.34 63.7597 26.22 64.2697 24.87C68.6997 13.21 76.7597 -5.88999 92.5797 1.72001L92.6397 1.74001ZM17.1397 42.07C16.4297 41.29 12.9897 46.66 12.6897 47.13C11.6197 48.82 10.5497 50.88 9.72966 52.71C11.2997 51.08 12.8797 49.18 14.1797 47.33C14.6897 46.61 17.5997 42.57 17.1397 42.07ZM162.01 52.39C160.93 49.9 159.36 47.08 157.76 44.87C157.01 43.83 156.02 42.01 154.59 42.07C154.01 42.61 161.08 51.61 162.01 52.39Z" fill="#1369F5"/>
</g>
<defs>
<clipPath id="clip0_2926_138">
<rect width="587.73" height="95.92" fill="white"/>
</clipPath>
</defs>
</svg>
